<svg width="250" height="250" viewBox="0 0 250 250" fill="none" xmlns="http://www.w3.org/2000/svg">
<rect width="250" height="250" fill="white"/>
<path d="M39.1406 54.5834C38.2656 51.1885 37.5 46.0414 37.5 43.1941V37.9375H98.4219C148.625 37.9375 160.547 38.266 165.469 39.5802C168.75 40.4563 174.656 42.7561 178.594 44.7273C183.188 47.027 188.438 50.9695 193.469 56.0071C198.281 60.8256 202.547 66.4108 205.062 71.3388C207.25 75.6098 209.875 81.9616 210.75 85.5755C212.062 90.2845 212.5 97.2933 212.5 110.435C212.5 120.619 212.172 128.833 211.734 128.833C211.188 128.723 209.328 126.643 207.469 124.124C205.609 121.605 201.016 117.115 197.078 114.268C193.25 111.311 187.344 107.916 184.062 106.602C178.375 104.412 175.531 104.193 134.297 103.536C97.875 102.988 89.4531 102.55 83.9844 101.017C80.375 99.9216 74.4688 97.6218 70.8594 95.6506C67.25 93.7889 60.7969 88.7513 56.5312 84.4803C51.1719 79.2237 47.5625 74.4052 44.7188 68.9296C42.5312 64.5491 40.0156 58.0878 39.1406 54.5834Z" fill="#379BFF"/>
<path d="M39.25 138.141C38.2656 134.528 37.5 129.271 37.5 126.424V121.167H97.875C148.406 121.167 159.453 121.386 164.922 122.81C168.531 123.795 174.656 126.095 178.594 128.066C183.188 130.257 188.438 134.309 193.359 139.237C198.281 144.055 202.547 149.75 205.062 154.568C207.25 158.73 209.766 165.191 210.75 168.805C211.953 173.514 212.5 180.632 212.5 193.774C212.5 203.849 212.172 212.062 211.625 212.062C211.188 212.062 209.109 209.763 207.031 206.915C204.953 204.178 200.25 199.797 196.641 197.169C193.031 194.65 187.344 191.365 184.062 190.05C178.266 187.532 176.734 187.422 133.75 186.875C92.4062 186.217 89.0156 185.998 82.3438 183.808C78.4062 182.494 72.0625 179.647 68.2344 177.347C64.4062 175.047 58.2812 169.9 54.5625 165.958C50.9531 162.015 46.3594 155.663 44.3906 151.721C42.4219 147.888 40.125 141.755 39.25 138.141Z" fill="#81DBFD"/>
</svg>
