<svg width="1922" height="399" viewBox="0 0 1922 399" fill="none" xmlns="http://www.w3.org/2000/svg">
<path d="M733.237 52.0682C724.5 56.8593 720.555 63.0595 720.555 72.6417C720.555 92.088 747.047 101.388 761.42 86.7332C770.72 77.4328 770.438 67.0051 760.293 56.8593C751.556 48.4044 742.819 46.7134 733.237 52.0682Z" fill="white"/>
<path d="M1365.66 56.859C1355.52 67.0048 1355.23 77.4325 1364.54 86.7329C1378.63 101.106 1405.4 92.3695 1405.4 73.4869C1405.4 62.2137 1402.58 57.4226 1393.85 52.9134C1382.01 46.7131 1374.96 47.8404 1365.66 56.859Z" fill="white"/>
<path d="M481 191.01V322.061H500.728H520.456V264.286V206.511L586.122 207.075L651.507 207.92L652.352 264.85L652.916 322.061H672.644H692.372V191.01V59.9596H672.644H652.916V116.326V172.691H586.686H520.456V116.326V59.9596H500.728H481V191.01Z" fill="white"/>
<path d="M1120.75 107.87C1120.75 134.08 1120.19 155.781 1119.34 155.781C1118.5 155.781 1113.14 150.708 1107.51 144.226C1092.57 127.88 1083.27 123.653 1060.16 123.653C1016.19 123.653 985.756 154.372 980.12 204.538C973.919 260.34 993.647 304.869 1031.69 320.651C1037.05 322.906 1050.01 324.879 1060.16 324.879C1082.99 324.879 1096.23 318.679 1110.61 301.769L1120.75 289.65V305.715V322.061H1139.07H1157.39V191.01V59.9592H1139.07H1120.75V107.87ZM1092.57 161.418C1100.74 165.645 1105.25 170.718 1111.45 183.119C1118.22 197.492 1119.34 202.565 1119.34 224.829C1119.34 254.14 1112.58 272.177 1097.08 284.014C1078.48 298.105 1046.91 295.005 1033.1 277.532C1012.53 251.321 1011.4 198.901 1030.85 174.1C1045.5 155.499 1070.87 150.426 1092.57 161.418Z" fill="white"/>
<path d="M1630.86 191.01V322.061H1650.59H1670.04L1670.88 253.295C1671.73 188.756 1672.01 183.965 1677.65 176.637C1687.51 163.391 1697.38 157.754 1713.16 156.627C1731.76 155.218 1745.29 161.7 1753.46 175.51C1758.53 184.528 1759.1 191.01 1759.94 253.576L1760.79 322.061H1779.11H1797.43L1796.58 245.403C1795.73 172.973 1795.45 167.9 1789.53 157.191C1774.88 129.853 1746.98 118.016 1713.44 124.78C1699.63 127.599 1695.12 130.417 1683.85 141.972L1670.32 155.782V107.871V59.9596H1650.59H1630.86V191.01Z" fill="white"/>
<path d="M1839.42 102.234V124.78H1825.33H1811.23V140.281V155.782H1825.33H1839.42V214.12C1839.42 246.531 1840.83 277.814 1842.24 283.732C1848.72 312.197 1876.06 328.543 1909.03 323.47L1921.71 321.497L1919.74 308.815C1916.92 289.932 1916.64 289.369 1904.24 290.496C1895.5 291.341 1891.84 290.214 1886.2 284.296L1878.87 277.25V216.375V155.782H1898.6H1918.33V140.281V124.78H1898.6H1878.87V102.234V79.6875H1859.15H1839.42V102.234Z" fill="white"/>
<path d="M866.824 126.19C854.987 130.135 844.278 138.308 834.695 151.554C831.032 156.627 830.75 155.782 830.468 140.845V124.78H812.149H793.83V223.421V322.061H811.867H830.186L831.032 255.267C831.877 194.11 832.441 187.347 837.514 178.61C845.969 164.237 856.396 157.754 873.306 156.627C891.625 155.218 905.153 161.7 912.762 175.792C917.271 184.246 917.835 192.701 917.835 253.576V322.061H937.563H957.291V254.422C957.291 217.22 955.882 180.864 954.191 172.973C950.527 154.936 937.845 137.745 923.472 130.417C908.535 122.808 883.452 120.835 866.824 126.19Z" fill="white"/>
<path d="M1242.79 124.78C1209.53 131.826 1188.39 153.527 1188.39 181.146C1188.39 212.429 1205.3 226.521 1256.03 238.64C1286.47 245.967 1296.9 251.04 1301.69 261.186C1305.63 270.204 1299.72 282.041 1287.6 289.087C1276.04 295.851 1249.27 296.415 1236.59 289.933C1231.79 287.114 1225.59 280.632 1223.06 275.277C1219.11 267.104 1217.14 265.695 1210.94 266.822C1206.99 267.668 1199.1 269.077 1193.47 270.204C1181.35 272.177 1180.78 273.586 1187.27 286.269C1193.75 298.951 1204.74 310.224 1217.98 317.27C1227.57 322.625 1233.77 323.47 1261.67 323.47C1292.39 323.47 1294.92 322.907 1309.3 315.015C1342.84 296.415 1352.42 256.958 1329.03 233.003C1318.03 221.448 1301.12 214.12 1270.69 207.638C1241.66 201.72 1229.54 194.11 1228.41 181.992C1227.29 169.873 1231.23 163.109 1243.07 157.473C1262.23 148.454 1286.75 153.809 1298.59 169.873C1305.07 178.328 1305.92 178.61 1319.44 176.919C1327.05 175.792 1334.66 173.819 1335.79 172.691C1339.17 169.591 1328.74 150.427 1318.88 141.127C1314.65 136.899 1306.48 131.544 1300.84 129.29C1287.88 123.935 1258 121.398 1242.79 124.78Z" fill="white"/>
<path d="M1486.29 124.78C1469.66 129.008 1460.64 134.644 1446.83 150.145C1429.36 169.591 1424 186.501 1423.72 222.012C1423.72 259.213 1429.36 275.559 1448.8 295.569C1464.58 311.915 1482.9 319.243 1506.86 319.243C1524.05 319.243 1546.03 308.251 1555.9 294.442L1563.23 284.014V312.197C1563.23 334.743 1562.1 342.071 1557.87 349.117C1550.26 361.799 1534.48 368.563 1512.5 368.281C1491.64 368.281 1480.37 363.49 1469.38 350.244L1462.05 341.789L1446.27 348.835L1430.2 355.881L1435.56 364.899C1442.04 376.172 1463.74 391.109 1479.52 395.619C1486 397.591 1502.07 399 1515.31 399C1553.08 398.719 1579.29 386.318 1593.38 362.363L1601.27 348.835L1602.12 236.667L1602.96 124.78H1584.64H1566.04V140.281C1566.04 148.736 1564.92 155.782 1563.79 155.782C1562.38 155.782 1558.72 151.836 1555.05 147.327C1540.68 127.599 1512.21 118.298 1486.29 124.78ZM1533.35 159.727C1544.06 164.237 1555.33 177.764 1560.13 192.138C1564.07 204.256 1564.07 238.358 1560.13 253.013C1548.85 293.596 1491.36 299.515 1470.22 262.313C1462.33 248.222 1459.23 214.684 1464.3 196.365C1473.32 163.109 1503.48 147.327 1533.35 159.727Z" fill="white"/>
<path d="M726.191 223.421V322.061H744.51H762.829V223.421V124.78H744.51H726.191V223.421Z" fill="white"/>
<path d="M1363.12 223.421V322.061H1381.44H1399.76V223.421V124.78H1381.44H1363.12V223.421Z" fill="white"/>
<path d="M3.75 38.0478C1.75 30.288 0 18.5233 0 12.0151V0H139.25C254 0 281.25 0.750943 292.5 3.75472C300 5.75723 313.5 11.0138 322.5 15.5195C333 20.7761 345 29.7874 356.5 41.3019C367.5 52.3157 377.25 65.0818 383 76.3459C388 86.1082 394 100.626 396 108.887C399 119.65 400 135.67 400 165.708C400 188.987 399.25 207.761 398.25 207.761C397 207.511 392.75 202.755 388.5 196.997C384.25 191.24 373.75 180.977 364.75 174.469C356 167.711 342.5 159.951 335 156.947C322 151.941 315.5 151.44 221.25 149.938C138 148.687 118.75 147.686 106.25 144.181C98 141.678 84.5 136.421 76.25 131.916C68 127.66 53.25 116.146 43.5 106.384C31.25 94.3685 23 83.3547 16.5 70.839C11.5 60.8264 5.75 46.0579 3.75 38.0478Z" fill="#379BFF"/>
<path d="M4 229.038C1.75 220.777 0 208.762 0 202.254V190.239H138C253.5 190.239 278.75 190.739 291.25 193.993C299.5 196.246 313.5 201.503 322.5 206.009C333 211.015 345 220.277 356.25 231.541C367.5 242.554 377.25 255.571 383 266.585C388 276.097 393.75 290.865 396 299.126C398.75 309.889 400 326.16 400 356.197C400 379.226 399.25 398 398 398C397 398 392.25 392.743 387.5 386.235C382.75 379.977 372 369.965 363.75 363.957C355.5 358.2 342.5 350.69 335 347.687C321.75 341.929 318.25 341.679 220 340.427C125.5 338.926 117.75 338.425 102.5 333.419C93.5 330.415 79 323.907 70.25 318.65C61.5 313.393 47.5 301.629 39 292.617C30.75 283.606 20.25 269.088 15.75 260.076C11.25 251.315 6 237.298 4 229.038Z" fill="#81DBFD"/>
</svg>
